<svg width="25" height="25" viewBox="0 0 25 25" fill="none" xmlns="http://www.w3.org/2000/svg">
<path fill-rule="evenodd" clip-rule="evenodd" d="M8.45836 3.04345C8.38834 3.03241 8.31716 3.03073 8.2467 3.03845C6.84503 3.19011 4.7117 3.94678 3.4517 4.63011C3.36848 4.6755 3.29398 4.73532 3.2317 4.80678C2.70836 5.40511 2.23336 6.38011 1.8617 7.30345C1.47836 8.25011 1.1617 9.25011 0.983363 9.97345C0.393363 12.3234 0.0716963 15.1451 0.0283629 17.8218C0.0269843 17.9553 0.0590712 18.0871 0.121696 18.2051C0.621696 19.1601 1.70003 20.0451 2.78003 20.6918C3.8717 21.3468 5.1467 21.8634 6.17336 21.9634C6.29637 21.9752 6.42043 21.9583 6.53581 21.914C6.65118 21.8698 6.75474 21.7994 6.83836 21.7084C7.09503 21.4301 7.5317 20.7801 7.8617 20.2751C8.0117 20.0451 8.15336 19.8251 8.26336 19.6501C9.3667 19.8501 10.75 19.9668 12.5 19.9668C14.2467 19.9668 15.63 19.8501 16.7334 19.6501C16.8434 19.8268 16.9834 20.0451 17.1334 20.2734C17.4634 20.7801 17.9 21.4301 18.1584 21.7084C18.242 21.7994 18.3455 21.8698 18.4609 21.914C18.5763 21.9583 18.7004 21.9752 18.8234 21.9634C19.85 21.8634 21.1234 21.3468 22.215 20.6918C23.295 20.0451 24.3734 19.1601 24.875 18.2051C24.9371 18.087 24.9686 17.9552 24.9667 17.8218C24.925 15.1451 24.6017 12.3218 24.015 9.97178C23.7793 9.06417 23.4848 8.17284 23.1334 7.30345C22.7617 6.38011 22.2867 5.40345 21.765 4.80678C21.7022 4.73517 21.6272 4.67534 21.5434 4.63011C20.285 3.94678 18.1517 3.19011 16.7484 3.03845C16.6784 3.03088 16.6078 3.03256 16.5384 3.04345C16.2243 3.1039 15.9296 3.24006 15.68 3.44011C15.121 3.89017 14.6689 4.45889 14.3567 5.10511C13.739 5.05666 13.1196 5.03276 12.5 5.03345C11.83 5.03345 11.21 5.05845 10.6384 5.10345C10.3259 4.45783 9.8739 3.88969 9.31503 3.44011C9.06592 3.2403 8.77189 3.10416 8.45836 3.04345ZM18.3634 19.2301C18.5979 19.5913 18.8385 19.9486 19.085 20.3018C19.745 20.1518 20.5867 19.8018 21.3934 19.3184C22.2984 18.7768 23.0167 18.1518 23.3634 17.6234C23.3084 15.1134 22.9984 12.5068 22.4634 10.3601C22.2454 9.52402 21.9738 8.70287 21.65 7.90178C21.3167 7.07178 20.9584 6.36845 20.6467 5.96511C19.5634 5.40345 17.855 4.81011 16.7417 4.64845C16.7082 4.66877 16.6759 4.69103 16.645 4.71511C16.5069 4.82376 16.3807 4.94666 16.2684 5.08178C16.2027 5.16002 16.1398 5.24063 16.08 5.32345C16.5884 5.41678 17.0417 5.52845 17.4434 5.65178C18.5834 6.00178 19.405 6.48511 19.8067 7.02011C19.934 7.18985 19.9887 7.40321 19.9587 7.61325C19.9286 7.82329 19.8164 8.01281 19.6467 8.14011C19.5627 8.20315 19.467 8.24901 19.3652 8.27509C19.2635 8.30116 19.1576 8.30693 19.0536 8.29207C18.8435 8.26207 18.654 8.14985 18.5267 7.98011C18.4284 7.85011 18 7.49678 16.9734 7.18011C15.9817 6.87678 14.5234 6.63345 12.5 6.63345C10.4767 6.63345 9.0167 6.87678 8.0267 7.18178C7.00003 7.49845 6.5717 7.84845 6.47336 7.98011C6.41033 8.06416 6.33136 8.13497 6.24096 8.18849C6.15056 8.24202 6.0505 8.27722 5.9465 8.29207C5.73646 8.32208 5.5231 8.26742 5.35336 8.14011C5.26932 8.07708 5.19851 7.99811 5.14498 7.90771C5.09146 7.81731 5.05626 7.71725 5.0414 7.61325C5.0114 7.40321 5.06606 7.18985 5.19336 7.02011C5.59503 6.48345 6.4167 6.00345 7.5567 5.65345C7.9567 5.52845 8.41003 5.41845 8.9167 5.32511C8.85679 5.24139 8.7934 5.16021 8.7267 5.08178C8.6149 4.94675 8.48921 4.82385 8.3517 4.71511C8.32026 4.69098 8.28742 4.66872 8.25336 4.64845C7.1417 4.81011 5.43336 5.40345 4.35003 5.96511C4.0367 6.37011 3.68003 7.07178 3.34503 7.90178C2.99003 8.78511 2.69503 9.71345 2.53336 10.3601C1.9967 12.5068 1.6867 15.1134 1.63336 17.6234C1.98003 18.1534 2.6967 18.7768 3.6017 19.3201C4.41003 19.8034 5.25003 20.1534 5.9117 20.3018C6.1607 19.9503 6.40133 19.593 6.63336 19.2301C5.32503 18.7651 4.62336 18.1268 4.1667 17.4434C4.10848 17.3559 4.06807 17.2577 4.04779 17.1546C4.0275 17.0514 4.02774 16.9453 4.04847 16.8422C4.06921 16.7391 4.11005 16.6411 4.16865 16.5539C4.22726 16.4666 4.30248 16.3917 4.39003 16.3334C4.47758 16.2752 4.57574 16.2348 4.6789 16.2145C4.78206 16.1943 4.88821 16.1945 4.99128 16.2152C5.09436 16.236 5.19234 16.2768 5.27963 16.3354C5.36692 16.394 5.44181 16.4692 5.50003 16.5568C5.93336 17.2101 7.07336 18.3668 12.5 18.3668C17.9284 18.3668 19.0667 17.2101 19.5 16.5568C19.6176 16.38 19.8006 16.2571 20.0088 16.2152C20.2169 16.1733 20.4332 16.2159 20.61 16.3334C20.7868 16.451 20.9097 16.634 20.9516 16.8422C20.9935 17.0504 20.9509 17.2666 20.8334 17.4434C20.3767 18.1268 19.6734 18.7668 18.3634 19.2301ZM6.80003 11.6868C7.2067 11.2501 7.75836 11.0034 8.33336 11.0001C8.90836 11.0034 9.46003 11.2501 9.8667 11.6868C10.2717 12.1251 10.5 12.7168 10.5 13.3334C10.5 13.9501 10.2717 14.5418 9.8667 14.9801C9.46003 15.4168 8.90836 15.6634 8.33336 15.6668C8.04433 15.6637 7.75902 15.6012 7.49522 15.4831C7.23142 15.3649 6.99477 15.1937 6.80003 14.9801C6.38937 14.5304 6.16324 13.9424 6.1667 13.3334C6.1667 12.7168 6.39503 12.1251 6.80003 11.6868ZM16.6667 11.0001C16.0917 11.0034 15.54 11.2501 15.1334 11.6868C14.7284 12.1251 14.5 12.7168 14.5 13.3334C14.5 13.9501 14.7284 14.5418 15.1334 14.9801C15.54 15.4168 16.0917 15.6634 16.6667 15.6668C17.2417 15.6634 17.7934 15.4168 18.2 14.9801C18.605 14.5418 18.8334 13.9501 18.8334 13.3334C18.8334 12.7168 18.605 12.1251 18.2 11.6868C18.0053 11.4732 17.7686 11.302 17.5048 11.1838C17.241 11.0657 16.9557 11.0032 16.6667 11.0001Z" fill="white"/>
</svg>