<svg width="25" height="25" viewBox="0 0 25 25" fill="none" xmlns="http://www.w3.org/2000/svg">
<g clip-path="url(#clip0_172_9)">
<path d="M12.252 18.5106C12.3482 18.5108 12.4434 18.5298 12.5322 18.5668C12.621 18.6037 12.7016 18.6577 12.7696 18.7258C12.8375 18.7939 12.8913 18.8747 12.928 18.9636C12.9646 19.0525 12.9834 19.1478 12.9833 19.2439C12.9832 19.3401 12.9641 19.4353 12.9272 19.5241C12.8902 19.6129 12.8362 19.6935 12.7681 19.7615C12.7 19.8294 12.6192 19.8832 12.5303 19.9199C12.4414 19.9565 12.3461 19.9753 12.25 19.9752C12.0557 19.9749 11.8696 19.8975 11.7325 19.76C11.5953 19.6225 11.5184 19.4361 11.5187 19.2419C11.519 19.0477 11.5964 18.8615 11.7339 18.7244C11.8715 18.5872 12.0578 18.5103 12.252 18.5106ZM23.7354 13.9825C23.6392 13.9824 23.544 13.9634 23.4552 13.9265C23.3664 13.8897 23.2857 13.8357 23.2177 13.7676C23.1498 13.6996 23.0959 13.6188 23.0592 13.53C23.0224 13.4411 23.0035 13.3458 23.0036 13.2497C23.0037 13.1535 23.0227 13.0583 23.0596 12.9695C23.0964 12.8807 23.1504 12.8 23.2185 12.732C23.2865 12.6641 23.3673 12.6102 23.4561 12.5735C23.545 12.5367 23.6403 12.5178 23.7364 12.5179C23.9306 12.518 24.1168 12.5953 24.2541 12.7328C24.3913 12.8702 24.4683 13.0565 24.4682 13.2507C24.4681 13.4449 24.3908 13.6311 24.2533 13.7684C24.1159 13.9056 23.9296 13.9826 23.7354 13.9825ZM23.7354 10.9867C23.1349 10.9872 22.5593 11.226 22.1347 11.6505C21.7101 12.0751 21.4713 12.6508 21.4708 13.2512C21.4708 13.4939 21.5114 13.7356 21.5906 13.971L14.1104 17.9533C13.903 17.6522 13.6254 17.406 13.3017 17.2359C12.978 17.0659 12.6177 16.9771 12.252 16.9773C11.3885 16.9773 10.602 17.4721 10.2208 18.2439L3.50101 14.7002C2.79059 14.3273 2.25934 13.1585 2.31559 12.0939C2.34476 11.5387 2.53642 11.1075 2.82913 10.9408C3.01455 10.8367 3.23747 10.845 3.47497 10.9689L3.51872 10.9929C5.29997 11.9304 11.127 15.0002 11.3729 15.1137C11.751 15.2898 11.9614 15.3606 12.6073 15.0544L24.6531 8.78978C24.8302 8.72312 25.0364 8.55332 25.0364 8.29603C25.0364 7.93978 24.6677 7.79916 24.6666 7.79916C23.9812 7.47103 22.9281 6.97832 21.901 6.49707C19.7052 5.46895 17.2166 4.30437 16.1239 3.73145C15.1802 3.2377 14.4208 3.65437 14.2854 3.7377L14.0229 3.86791C9.10413 6.3002 2.5208 9.56062 2.1458 9.78874C1.47601 10.1971 1.06038 11.0106 1.00622 12.02C0.922882 13.621 1.73851 15.2908 2.90622 15.9023L10.0125 19.5669C10.0907 20.1052 10.3601 20.5973 10.7713 20.9535C11.1825 21.3096 11.7081 21.5059 12.252 21.5064C12.8461 21.5054 13.4161 21.2713 13.8394 20.8545C14.2627 20.4376 14.5055 19.8713 14.5156 19.2773L22.3427 15.0346C22.7385 15.345 23.2312 15.5148 23.7354 15.5148C24.3358 15.5142 24.9115 15.2755 25.3361 14.8509C25.7606 14.4263 25.9994 13.8506 26 13.2502C25.9994 12.6498 25.7606 12.0741 25.3361 11.6495C24.9115 11.2249 24.3358 10.9862 23.7354 10.9856" fill="white"/>
</g>
<defs>
<clipPath id="clip0_172_9">
<rect width="25" height="25" fill="white"/>
</clipPath>
</defs>
</svg>