<svg width="25" height="25" viewBox="0 0 25 25" fill="none" xmlns="http://www.w3.org/2000/svg">
<path d="M8.33331 6.25C9.99092 6.25 11.5806 6.90848 12.7527 8.08058C13.9248 9.25269 14.5833 10.8424 14.5833 12.5C14.5833 14.1576 13.9248 15.7473 12.7527 16.9194C11.5806 18.0915 9.99092 18.75 8.33331 18.75C6.67571 18.75 5.086 18.0915 3.9139 16.9194C2.74179 15.7473 2.08331 14.1576 2.08331 12.5C2.08331 10.8424 2.74179 9.25269 3.9139 8.08058C5.086 6.90848 6.67571 6.25 8.33331 6.25ZM17.7083 7.29167C19.2708 7.29167 20.3125 9.62396 20.3125 12.5C20.3125 15.376 19.2708 17.7083 17.7083 17.7083C16.1458 17.7083 15.1041 15.376 15.1041 12.5C15.1041 9.62396 16.1458 7.29167 17.7083 7.29167ZM21.875 7.8125C22.2708 7.8125 22.6166 8.67396 22.7916 10.1521L22.8406 10.6135L22.8604 10.8583L22.8916 11.3729L22.9021 11.6427L22.9146 12.2063L22.9166 12.5L22.9146 12.7937L22.9021 13.3573L22.8916 13.6281L22.8604 14.1417L22.8396 14.3865L22.7927 14.8479C22.6166 16.3271 22.2719 17.1875 21.875 17.1875C21.4791 17.1875 21.1333 16.326 20.9583 14.8479L20.9094 14.3865C20.9022 14.3049 20.8956 14.2233 20.8896 14.1417L20.8583 13.6271C20.8543 13.5372 20.8508 13.4472 20.8479 13.3573L20.8354 12.7937V12.2063L20.8479 11.6427L20.8583 11.3719L20.8896 10.8583L20.9104 10.6135L20.9573 10.1521C21.1333 8.67292 21.4781 7.8125 21.875 7.8125Z" fill="white"/>
</svg>