<svg width="1440" height="175" viewBox="0 0 1440 175" fill="none" xmlns="http://www.w3.org/2000/svg">
<rect width="1440" height="175" fill="#0c1022"/>
<g clip-path="url(#clip0_2986_12406)">
<g clip-path="url(#clip1_2986_12406)">
<g clip-path="url(#clip2_2986_12406)">
<path d="M241.255 102.425L247.419 102.553C245.295 101.818 243.235 100.924 241.255 99.8709V102.425ZM250.541 101.579V102.425L247.419 102.553C253.293 104.548 258.669 104.819 262.66 103.702C259.457 103.734 255.289 103.287 250.541 101.579ZM316.349 83.1901C318.908 83.1901 321 81.131 321 78.577C321 76.023 318.924 74.6662 316.349 74.6662C313.79 74.6662 311.698 76.039 311.698 78.577C311.698 81.115 313.774 83.1901 316.349 83.1901ZM311.682 102.425H321V84.7864H311.682V102.425ZM299.82 102.425H309.139V71.2502L299.82 75.608V102.425ZM294.831 83.3657C291.902 80.4606 286.72 80.6362 286.72 80.6362C286.72 80.6362 281.522 80.4606 278.609 83.3657C275.68 86.2709 275.905 88.777 275.905 91.762C275.905 94.747 275.68 97.2371 278.609 100.142C281.538 103.047 286.72 102.872 286.72 102.872C286.72 102.872 291.918 103.047 294.831 100.142C297.76 97.2371 297.535 94.747 297.535 91.762C297.519 88.761 297.744 86.2549 294.831 83.3657ZM288.426 94.8427C288.426 95.4174 288.136 96.838 286.704 96.838C285.272 96.838 284.982 95.4174 284.982 94.8427V88.3939C284.982 87.0052 286.157 86.654 286.704 86.654C287.251 86.654 288.426 86.9892 288.426 88.3939V94.8427ZM271.335 83.3657C268.406 80.4606 263.223 80.6362 263.223 80.6362C263.223 80.6362 258.041 80.4606 255.112 83.3657C254.806 83.669 254.517 83.9883 254.259 84.3235C248.111 79.5986 242.591 76.9009 237.827 74.5704V71.2662L234.206 72.9582C225.451 69.4305 219.883 70.0531 218.547 72.9742C218.547 72.9742 214.54 78.2099 228.493 90.6606V102.425H237.811V97.8596C236.765 97.1892 235.719 96.4709 234.689 95.6887C232.307 93.9009 230.279 92.2409 228.509 90.6765V85.7282C230.617 88.0747 233.418 90.7404 237.103 93.7573L237.827 94.3319V89.5751C237.827 88.4737 238.101 86.67 239.566 86.67C241.03 86.67 241.271 87.7714 241.271 89.0643V96.838C244.168 98.7855 247.274 100.366 250.558 101.563V86.5742C250.558 83.5892 248.401 80.6042 244.023 80.6042C241.481 80.5883 239.115 81.9132 237.827 84.1V75.4324C244.571 78.7685 251.33 82.8549 253.905 84.7385C252.263 87.069 252.408 89.2239 252.408 91.7141C252.408 94.6991 252.183 97.1892 255.112 100.094C258.041 103 263.223 102.824 263.223 102.824C263.223 102.824 268.422 103 271.335 100.094C274.264 97.1892 274.022 94.6991 274.022 91.7141C274.022 88.761 274.264 86.2549 271.335 83.3657ZM228.493 75.608V85.7122C220.655 77.0127 222.233 73.5808 222.828 73.0859C225.001 71.2662 228.863 71.8089 233.192 73.4211L228.493 75.608ZM264.945 94.8427C264.945 95.4174 264.656 96.838 263.223 96.838C261.791 96.838 261.501 95.4174 261.501 94.8427V88.3939C261.501 87.0052 262.676 86.654 263.223 86.654C263.771 86.654 264.945 86.9892 264.945 88.3939V94.8427Z" fill="white"/>
</g>
</g>
<g clip-path="url(#clip3_2986_12406)">
<path d="M407.5 58.9952H420.112V93.0099C420.112 98.4046 422.544 101.615 424.521 102.952C422.463 104.761 416.221 106.358 411.52 102.496C408.764 100.214 407.5 96.4162 407.5 92.8795V58.9952ZM486.269 87.2729V83.6872H490.127V71.1701H485.896C484.259 63.624 477.596 58.0173 469.637 58.0173C460.461 58.0173 452.988 65.5146 452.988 74.7557V103.962C455.582 104.337 458.727 103.913 461.369 101.681C464.141 99.3988 465.389 95.6176 465.389 92.0646V90.9726H471.679V78.4555H465.389V74.6579C465.389 69.0187 473.851 69.0187 473.851 74.6579V87.224C473.851 96.4488 481.308 103.962 490.5 103.962V91.4941C488.149 91.4941 486.269 89.5872 486.269 87.2729ZM438.56 71.1375V89.5546C438.56 92.0646 434.702 92.0646 434.702 89.5546V71.1375H422.252V92.7654C422.252 96.6444 423.549 101.567 429.547 103.18C435.545 104.777 438.982 101.452 438.982 101.452C438.641 103.636 436.631 105.25 433.324 105.576C430.811 105.837 427.618 104.989 426.029 104.305V115.762C430.098 116.985 434.378 117.36 438.609 116.528C446.244 115.045 451.059 108.64 451.059 100.1V71.056H438.56V71.1375Z" fill="white"/>
</g>
<g clip-path="url(#clip4_2986_12406)">
<path d="M679 50.1458C666.122 58.8283 664.752 65.1296 663.636 67.0572C662.568 69.0334 661.772 76.825 659.923 80.5993C658.058 84.4222 651.285 87.4352 649.388 88.6987C647.523 89.9622 644.878 94.8704 642.71 99.0982C625.482 98.3855 616.031 105.383 601.4 114.26C606.086 112.689 608.301 111.555 608.301 111.555C623.314 105.724 630.502 100.491 653.102 103.585C653.277 103.585 653.404 103.682 653.548 103.715C654.169 104.071 654.392 104.833 654.042 105.464L645.452 120.983C645.053 121.744 644.208 122.149 643.364 121.971C623.155 118.116 607.202 124.773 592.539 124.984C580.841 125.162 577 119.557 577 119.298C577 119.12 577.096 119.023 577.271 119.023C577.271 119.023 583.375 119.023 593.702 116.544C605.432 93.8175 615.887 85.8639 627.267 85.8639C627.267 85.8639 638.694 85.8639 641.706 95.8909C645.34 89.46 646.217 87.9211 646.217 87.9211C647.061 86.3985 651.795 75.4157 659.987 65.0162C668.194 54.649 674.394 52.0734 679 50.1458Z" fill="white"/>
</g>
<g clip-path="url(#clip5_2986_12406)">
<g clip-path="url(#clip6_2986_12406)">
<path d="M784.556 69.7932L777.587 71.2568L777.555 93.9114C777.555 98.0955 780.741 100.8 784.974 100.8C787.324 100.8 789.046 100.37 789.995 99.8614V94.4841C789.078 94.85 784.572 96.1546 784.572 91.9864V81.9318H789.995V75.9182H784.572L784.556 69.7932ZM798.895 78.0023L798.461 75.9182H792.281V100.291H799.41V83.8886C801.1 81.6932 803.949 82.1227 804.866 82.4091V75.9182C803.9 75.5841 800.569 74.9636 798.895 78.0023ZM813.75 66.5L806.572 68.0114V73.7705L813.75 72.2591V66.5ZM765.227 83.0932C765.227 81.9955 766.161 81.5659 767.657 81.55C769.83 81.55 772.598 82.2023 774.771 83.3636V76.7136C772.405 75.7909 770.039 75.425 767.673 75.425C761.88 75.425 758.017 78.4159 758.017 83.4114C758.017 91.2386 768.88 89.9659 768.88 93.3386C768.88 94.6432 767.738 95.0727 766.144 95.0727C763.779 95.0727 760.721 94.1023 758.323 92.8136V99.1773C760.978 100.307 763.666 100.784 766.128 100.784C772.067 100.784 776.155 98.2705 776.155 93.1796C776.155 84.7636 765.227 86.275 765.227 83.0932ZM861.001 88.3909C861.001 81.1523 857.46 75.4409 850.669 75.4409C843.877 75.4409 839.741 81.1523 839.741 88.3432C839.741 96.8545 844.618 100.784 851.57 100.784C854.982 100.784 857.541 100.02 859.488 98.9545V93.6409C857.541 94.6114 855.304 95.2 852.471 95.2C849.687 95.2 847.241 94.2295 846.919 90.9205H860.904C860.937 90.5545 861.001 89.075 861.001 88.3909ZM846.855 85.7182C846.855 82.5364 848.834 81.2 850.621 81.2C852.375 81.2 854.242 82.5364 854.242 85.7182H846.855ZM828.685 75.4409C825.884 75.4409 824.082 76.7455 823.084 77.6523L822.714 75.9023H816.421V108.484L823.567 106.989L823.583 99.0023C824.613 99.75 826.142 100.784 828.636 100.784C833.754 100.784 838.421 97.0932 838.421 88.1205C838.438 79.9114 833.706 75.4409 828.685 75.4409ZM826.979 94.9296C825.305 94.9296 824.307 94.325 823.615 93.5932L823.567 83.0932C824.307 82.2818 825.337 81.6932 826.979 81.6932C829.586 81.6932 831.389 84.5886 831.389 88.2795C831.405 92.0818 829.634 94.9296 826.979 94.9296ZM806.588 100.291H813.766V75.9182H806.588V100.291Z" fill="white"/>
</g>
</g>
<g clip-path="url(#clip7_2986_12406)">
<g clip-path="url(#clip8_2986_12406)">
<path d="M967.887 78.9887C967.771 82.6268 969.604 84.2378 969.65 85.261C969.628 85.4692 969.557 85.6693 969.441 85.8445C969.325 86.0197 969.169 86.165 968.986 86.2681L966.912 87.7072C966.644 87.8938 966.327 88.0007 966 88.0156C965.93 88.0124 964.673 88.3096 962.682 83.9021C961.468 85.4055 959.922 86.6133 958.164 87.4332C956.406 88.2531 954.482 88.6633 952.54 88.6324C949.903 88.7754 942.756 87.1483 943.123 79.6039C942.866 73.4553 948.641 69.6357 954.613 69.9585C955.764 69.9618 958.113 70.018 962.226 70.9656V68.4567C962.661 64.2067 959.844 60.9091 954.967 61.4038C954.578 61.4054 951.824 61.3235 947.541 63.0277C946.349 63.5706 946.196 63.4807 945.799 63.4807C944.599 63.4807 945.093 60.0305 945.323 59.5936C946.167 58.5656 951.132 56.6462 956.005 56.6735C959.263 56.3878 962.504 57.3848 965.026 59.4491C966.052 60.5864 966.834 61.918 967.326 63.3635C967.818 64.809 968.01 66.3383 967.889 67.8592L967.887 78.9887ZM953.888 84.1912C959.141 84.1157 961.365 80.9836 961.872 79.2971C962.271 77.6828 962.205 76.6613 962.205 74.8961C960.638 74.5234 958.383 74.117 955.796 74.1138C953.342 73.9307 948.859 75.0181 949.034 79.2955C948.834 81.9923 950.836 84.339 953.888 84.1912ZM981.576 87.8936C980.302 88.0092 979.71 87.1129 979.522 86.2279L971.454 59.7815C971.297 59.335 971.194 58.874 971.143 58.4034C971.114 58.2094 971.163 58.0116 971.28 57.8535C971.397 57.6953 971.573 57.5898 971.769 57.5601C971.807 57.5537 971.424 57.5601 975.373 57.5601C976.795 57.4188 977.259 58.5287 977.406 59.2258L983.192 81.8462L988.564 59.2258C988.65 58.7086 989.04 57.4477 990.638 57.581H993.417C993.769 57.5521 995.217 57.5007 995.472 59.2467L1000.89 82.1562L1006.86 59.2467C1006.94 58.8965 1007.3 57.4204 1008.91 57.581H1012.11C1012.24 57.5601 1013.1 57.4509 1012.96 58.9592C1012.89 59.2563 1013.51 57.2469 1004.41 86.2488C1004.23 87.1338 1003.63 88.0301 1002.36 87.9144H999.33C997.558 88.0992 997.304 86.3628 997.276 86.1878L991.904 64.1617L986.594 86.1653C986.568 86.3404 986.314 88.0767 984.54 87.892H981.576V87.8936ZM1025.88 88.7979C1024.93 88.7995 1020.38 88.7497 1016.59 86.8238C1016.21 86.665 1015.89 86.3984 1015.66 86.0579C1015.43 85.7173 1015.32 85.3181 1015.32 84.9108V83.1841C1015.32 81.8269 1016.32 82.0758 1016.75 82.2381C1018.38 82.8902 1019.42 83.3849 1021.42 83.78C1027.36 84.9895 1029.97 83.4106 1030.61 83.0605C1032.74 81.806 1032.91 78.9357 1031.46 77.4467C1029.76 76.0349 1028.95 75.9819 1022.85 74.0737C1022.1 73.8665 1015.77 71.8876 1015.76 65.6635C1015.66 61.1276 1019.81 56.6398 1027.02 56.6767C1029.07 56.6751 1034.54 57.3401 1036.02 59.1856C1036.24 59.5213 1036.35 59.9165 1036.33 60.3164V61.9403C1036.33 62.6535 1036.07 63.01 1035.54 63.01C1034.29 62.8719 1032.08 61.2159 1027.58 61.2834C1026.46 61.2255 1021.12 61.4295 1021.36 65.2941C1021.29 68.3395 1025.67 69.4815 1026.17 69.6132C1032.07 71.3752 1034.05 71.6676 1036.39 74.3644C1039.17 77.9382 1037.67 82.1224 1037.1 83.2693C1034.01 89.291 1026.01 88.8011 1025.88 88.7979ZM1032.39 105.641C1021.05 113.948 1004.58 118.37 990.516 118.37C971.544 118.494 953.21 111.577 939.12 98.9781C938.063 98.032 938.996 96.7358 940.282 97.457C955.912 106.322 973.608 110.98 991.614 110.968C1005.06 110.897 1018.36 108.192 1030.75 103.01C1032.66 102.207 1034.28 104.263 1032.39 105.641ZM1037.12 100.294C1035.67 98.4432 1027.52 99.4294 1023.87 99.8615C1022.77 99.9852 1022.58 99.0391 1023.58 98.3404C1030.07 93.8157 1040.73 95.1119 1041.95 96.633C1043.18 98.1541 1041.62 108.745 1035.54 113.805C1034.61 114.587 1033.72 114.175 1034.13 113.147C1035.5 109.733 1038.57 102.146 1037.12 100.294Z" fill="white"/>
</g>
</g>
<g clip-path="url(#clip9_2986_12406)">
<g clip-path="url(#clip10_2986_12406)">
<path d="M1200.93 79.1614C1198.53 79.1614 1196.42 80.1556 1194.87 81.7111C1189.17 77.7503 1181.49 75.2006 1172.98 74.928L1177.41 54.9156L1191.49 58.0906C1191.49 61.5543 1194.3 64.3766 1197.75 64.3766C1201.26 64.3766 1204.09 61.4741 1204.09 58.0104C1204.09 54.5467 1201.28 51.6443 1197.75 51.6443C1195.29 51.6443 1193.17 53.1356 1192.11 55.1721L1176.56 51.7084C1175.78 51.5 1175.01 52.0612 1174.8 52.847L1169.95 74.912C1161.5 75.2648 1153.9 77.8144 1148.19 81.7752C1146.64 80.1556 1144.45 79.1614 1142.06 79.1614C1133.18 79.1614 1130.27 91.124 1138.4 95.2131C1138.11 96.4799 1137.99 97.8269 1137.99 99.1739C1137.99 112.612 1153.06 123.5 1171.56 123.5C1190.15 123.5 1205.22 112.612 1205.22 99.1739C1205.22 97.8269 1205.08 96.4158 1204.73 95.149C1212.69 91.0438 1209.76 79.1614 1200.93 79.1614ZM1151.29 96.063C1151.29 92.5351 1154.1 89.6968 1157.63 89.6968C1161.07 89.6968 1163.88 92.5191 1163.88 96.063C1163.88 99.5267 1161.07 102.349 1157.63 102.349C1154.11 102.365 1151.29 99.5267 1151.29 96.063ZM1185.5 111.056C1179.69 116.893 1163.29 116.893 1157.48 111.056C1156.84 110.495 1156.84 109.501 1157.48 108.859C1158.04 108.298 1159.03 108.298 1159.59 108.859C1164.03 113.43 1178.75 113.51 1183.38 108.859C1183.94 108.298 1184.93 108.298 1185.49 108.859C1186.14 109.501 1186.14 110.495 1185.5 111.056ZM1185.37 102.365C1181.93 102.365 1179.12 99.5427 1179.12 96.079C1179.12 92.5512 1181.93 89.7129 1185.37 89.7129C1188.89 89.7129 1191.71 92.5351 1191.71 96.079C1191.7 99.5267 1188.89 102.365 1185.37 102.365Z" fill="white"/>
</g>
</g>
</g>
<defs>
<clipPath id="clip0_2986_12406">
<rect width="1050" height="175" fill="white" transform="translate(195)"/>
</clipPath>
<clipPath id="clip1_2986_12406">
<rect width="153" height="34" fill="white" transform="translate(193 70.5)"/>
</clipPath>
<clipPath id="clip2_2986_12406">
<rect width="103" height="34" fill="white" transform="translate(218 70.5)"/>
</clipPath>
<clipPath id="clip3_2986_12406">
<rect width="83" height="59" fill="white" transform="translate(407.5 58)"/>
</clipPath>
<clipPath id="clip4_2986_12406">
<rect width="102" height="75" fill="white" transform="translate(577 50)"/>
</clipPath>
<clipPath id="clip5_2986_12406">
<rect width="151" height="42" fill="white" transform="translate(734 66.5)"/>
</clipPath>
<clipPath id="clip6_2986_12406">
<rect width="103" height="42" fill="white" transform="translate(758 66.5)"/>
</clipPath>
<clipPath id="clip7_2986_12406">
<rect width="151" height="62" fill="white" transform="translate(915 56.5)"/>
</clipPath>
<clipPath id="clip8_2986_12406">
<rect width="104" height="62" fill="white" transform="translate(938.5 56.5)"/>
</clipPath>
<clipPath id="clip9_2986_12406">
<rect width="151" height="72" fill="white" transform="translate(1096 51.5)"/>
</clipPath>
<clipPath id="clip10_2986_12406">
<rect width="76" height="72" fill="white" transform="translate(1133.5 51.5)"/>
</clipPath>
</defs>
</svg>